<svg xmlns="http://www.w3.org/2000/svg" fill="currentColor">
    <symbol id="floppy">
        <g fill="currentColor">
            <title>Layer 1</title>
            <path id="svg_1" d="m0,0l3,0l0,3l-3,0l0,-3zm0,3l3,0l0,3l-3,0l0,-3zm0,3l3,0l0,3l-3,0l0,-3zm0,3l3,0l0,3l-3,0l0,-3zm0,3l3,0l0,3l-3,0l0,-3zm0,3l3,0l0,3l-3,0l0,-3zm0,3l3,0l0,3l-3,0l0,-3zm0,3l3,0l0,3l-3,0l0,-3zm0,3l3,0l0,3l-3,0l0,-3zm0,3l3,0l0,3l-3,0l0,-3zm0,3l3,0l0,3l-3,0l0,-3zm0,3l3,0l0,3l-3,0l0,-3zm0,3l3,0l0,3l-3,0l0,-3zm33,-36l0,3l-3,0l0,-3l3,0z"/>
            <path id="svg_2" d="m30.003,0l0,3l-3,0l0,-3l3,0zm-3.003,0l0,3l-3,0l0,-3l3,0zm-3,0l0,3l-3,0l0,-3l3,0zm-3.001,0l0,3l-3,0l0,-3l3,0z"/>
            <path id="svg_3" d="m18,0l0,3l-3,0l0,-3l3,0zm-3.001,0l0,3l-3,0l0,-3l3,0z"/>
            <path id="svg_4" d="m12,0l0,3l-3,0l0,-3l3,0zm-3.004,0l0,3l-3,0l0,-3l3,0z"/>
            <path id="svg_5" d="m6,0l0,3l-3,0l0,-3l3,0zm30,3l0,3l-3,0l0,-3l3,0zm-27.004,3l0,3l-3,0l0,-3l3,0zm0,-3l0,3l-3,0l0,-3l3,0zm0,6l0,3l-3,0l0,-3l3,0zm21.007,-3l0,3l-3,0l0,-3l3,0zm0,-3l0,3l-3,0l0,-3l3,0zm0,6l0,3l-3,0l0,-3l3,0zm-6.003,-3l0,3l-3,0l0,-3l3,0zm0,-3l0,3l-3,0l0,-3l3,0zm0,6l0,3l-3,0l0,-3l3,0zm6.003,3l0,3l-3,0l0,-3l3,0zm-3.003,0l0,3l-3,0l0,-3l3,0zm-3,0l0,3l-3,0l0,-3l3,0zm-3.001,0l0,3l-3,0l0,-3l3,0z"/>
            <path id="svg_6" d="m18,12l0,3l-3,0l0,-3l3,0zm-3.001,0l0,3l-3,0l0,-3l3,0z"/>
            <path id="svg_7" d="m12,12l0,3l-3,0l0,-3l3,0zm-3.004,0l0,3l-3,0l0,-3l3,0zm24.004,9l0,3l-3,0l0,-3l3,0z"/>
            <path id="svg_8" d="m30.003,21l0,3l-3,0l0,-3l3,0zm-3.003,0l0,3l-3,0l0,-3l3,0zm-3,0l0,3l-3,0l0,-3l3,0zm-3.001,0l0,3l-3,0l0,-3l3,0z"/>
            <path id="svg_9" d="m18,21l0,3l-3,0l0,-3l3,0zm-3.001,0l0,3l-3,0l0,-3l3,0z"/>
            <path id="svg_10" d="m12,21l0,3l-3,0l0,-3l3,0zm-3.004,0l0,3l-3,0l0,-3l3,0zm24.004,3l0,3l-3,0l0,-3l3,0zm-24.004,0l0,3l-3,0l0,-3l3,0zm24.004,3l0,3l-3,0l0,-3l3,0zm-24.004,0l0,3l-3,0l0,-3l3,0zm24.004,3l0,3l-3,0l0,-3l3,0zm-24.004,0l0,3l-3,0l0,-3l3,0zm0,3l0,3l-3,0l0,-3l3,0zm24.004,0l0,3l-3,0l0,-3l3,0zm3,3l0,3l-3,0l0,-3l3,0zm-3,0l0,3l-3,0l0,-3l3,0z"/>
            <path id="svg_11" d="m30.003,36l0,3l-3,0l0,-3l3,0zm-3.003,0l0,3l-3,0l0,-3l3,0zm-3,0l0,3l-3,0l0,-3l3,0zm-3.001,0l0,3l-3,0l0,-3l3,0z"/>
            <path id="svg_12" d="m18,36l0,3l-3,0l0,-3l3,0zm-3.001,0l0,3l-3,0l0,-3l3,0z"/>
            <path id="svg_13" d="m12,36l0,3l-3,0l0,-3l3,0zm-3.004,0l0,3l-3,0l0,-3l3,0z"/>
            <path id="svg_14" d="m6,36l0,3l-3,0l0,-3l3,0zm33,3l-3,0l0,-3l3,0l0,3zm0,-3l-3,0l0,-3l3,0l0,3zm0,-3l-3,0l0,-3l3,0l0,3zm0,-3l-3,0l0,-3l3,0l0,3zm0,-3l-3,0l0,-3l3,0l0,3zm0,-3l-3,0l0,-3l3,0l0,3zm0,-3l-3,0l0,-3l3,0l0,3zm0,-3l-3,0l0,-3l3,0l0,3zm0,-3l-3,0l0,-3l3,0l0,3zm0,-3l-3,0l0,-3l3,0l0,3zm0,-3l-3,0l0,-3l3,0l0,3z"/>
        </g>
    </symbol>
</svg>